<?xml version="1.0" encoding="UTF-8"?><svg id="Layer_1" xmlns="http://www.w3.org/2000/svg" viewBox="0 0 700 163.15"><defs><style>.cls-1{fill:#3faa7c;}.cls-2{fill:#fff;}</style></defs><path class="cls-1" d="M266.9,85.44c0,27.22-18.85,44.62-43.17,44.62-10.79,0-19.65-3.38-26.09-10.47v40.43h-25.13V42.11h24v9.99c6.28-7.57,15.62-11.28,27.22-11.28,24.32,0,43.17,17.4,43.17,44.62ZM241.45,85.44c0-14.98-9.5-24-22.07-24s-22.07,9.02-22.07,24,9.5,24,22.07,24,22.07-9.02,22.07-24Z"/><path class="cls-1" d="M280.58,16.01c0-7.89,6.28-14.01,15.62-14.01s15.62,5.8,15.62,13.53c0,8.38-6.28,14.5-15.62,14.5s-15.62-6.12-15.62-14.01ZM283.65,42.11h25.13v86.66h-25.13V42.11Z"/><path class="cls-1" d="M325.68,85.44c0-26.09,20.13-44.62,48.32-44.62,18.2,0,32.54,7.89,38.82,22.07l-19.49,10.47c-4.67-8.21-11.6-11.92-19.49-11.92-12.72,0-22.71,8.86-22.71,24s9.99,24,22.71,24c7.89,0,14.82-3.54,19.49-11.92l19.49,10.63c-6.28,13.85-20.62,21.91-38.82,21.91-28.19,0-48.32-18.52-48.32-44.62Z"/><path class="cls-1" d="M463.88,94.78l-12.08,11.92v22.07h-25.13V9.25h25.13v67.65l36.72-34.79h29.96l-36.08,36.72,39.3,49.93h-30.44l-27.38-33.99Z"/><path class="cls-1" d="M521.7,120.71l8.38-18.04c7.73,4.99,19.49,8.38,30.12,8.38,11.6,0,15.95-3.06,15.95-7.89,0-14.17-52.35.32-52.35-34.31,0-16.43,14.82-28.03,40.11-28.03,11.92,0,25.13,2.74,33.34,7.57l-8.38,17.88c-8.54-4.83-17.07-6.44-24.97-6.44-11.27,0-16.11,3.54-16.11,8.05,0,14.82,52.35.48,52.35,34.63,0,16.11-14.98,27.54-40.91,27.54-14.66,0-29.48-4.03-37.53-9.34Z"/><path class="cls-1" d="M700,42.11l-39.14,91.97c-8.38,20.94-20.29,27.22-35.92,27.22-8.86,0-18.52-2.9-24.16-7.89l9.18-17.88c3.87,3.38,9.18,5.48,14.17,5.48,6.93,0,10.79-3.06,14.17-10.79l.32-.8-37.53-87.3h25.93l24.32,58.79,24.48-58.79h24.16Z"/><circle class="cls-1" cx="77.57" cy="79.57" r="77.57"/><path class="cls-2" d="M112.8,45.83c2.39,1.74,2.92,5.08,1.19,7.47l-42.79,58.83c-.92,1.27-2.34,2.06-3.91,2.19-1.57.13-3.09-.45-4.2-1.55l-21.39-21.39c-2.09-2.09-2.09-5.48,0-7.57s5.48-2.09,7.57,0l16.96,16.96,39.11-53.77c1.74-2.39,5.08-2.92,7.47-1.19l-.02.02Z"/></svg>